name rise30.3154peak39.0474fall46.5389.mot
datacolumns 19
datarows 11
range 5.93832800000000 5.95497800000000
endheader
time	ground_force1_vx	ground_force1_vy	ground_force1_vz	ground_force1_px	ground_force1_py	ground_force1_pz	ground_force2_vx	ground_force2_vy	ground_force2_vz	ground_force2_px	ground_force2_py	ground_force2_pz	ground_torque1_x	ground_torque1_y	ground_torque1_z	ground_torque2_x	ground_torque2_y	ground_torque2_z	
5.93832800000000	-8.10844700000000	44.56688500000000	-8.55822600000000	0.27874500000000	0.00000000000000	0.12060600000000	-45.67148900000000	773.19027700000004	-60.56352700000000	0.11251600000000	0.00000000000000	-0.08324500000000	0.00000000000000	-4.26602700000000	0.00000000000000	0.00000000000000	-20.17500900000000	0.00000000000000	
5.93998000000000	-8.88980800000000	52.60595000000000	-9.54479300000000	0.28762500000000	0.00000000000000	0.12180200000000	-45.94116300000000	769.72842200000002	-60.20749500000000	0.11206200000000	0.00000000000000	-0.08315100000000	0.00000000000000	-4.87077400000000	0.00000000000000	0.00000000000000	-20.05482000000000	0.00000000000000	
5.94164300000000	-9.51597100000000	60.84255100000000	-10.41186000000000	0.29542100000000	0.00000000000000	0.12285800000000	-46.21934100000000	766.14041999999995	-59.82489100000000	0.11162000000000	0.00000000000000	-0.08305200000000	0.00000000000000	-5.43127900000000	0.00000000000000	0.00000000000000	-19.93382500000000	0.00000000000000	
5.94331800000000	-9.96442800000000	69.17784399999999	-11.13624800000000	0.30232100000000	0.00000000000000	0.12379800000000	-46.50626000000000	762.42574900000000	-59.41551700000000	0.11118900000000	0.00000000000000	-0.08294900000000	0.00000000000000	-5.93291600000000	0.00000000000000	0.00000000000000	-19.81210600000000	0.00000000000000	
5.94498400000000	-10.22166200000000	77.53448899999999	-11.70299400000000	0.30846800000000	0.00000000000000	0.12464400000000	-46.80207100000000	758.58383800000001	-58.97920400000000	0.11076900000000	0.00000000000000	-0.08284100000000	0.00000000000000	-6.36524000000000	0.00000000000000	0.00000000000000	-19.68973500000000	0.00000000000000	
5.94664700000000	-10.28302000000000	85.85935400000000	-12.10538600000000	0.31397700000000	0.00000000000000	0.12541100000000	-47.10683700000000	754.61405500000001	-58.51581900000000	0.11035900000000	0.00000000000000	-0.08272800000000	0.00000000000000	-6.72218700000000	0.00000000000000	0.00000000000000	-19.56676600000000	0.00000000000000	
5.94831100000000	-10.15189400000000	94.12377200000000	-12.34431200000000	0.31893800000000	0.00000000000000	0.12611100000000	-47.42052900000000	750.51571600000000	-58.02526300000000	0.10995800000000	0.00000000000000	-0.08261000000000	0.00000000000000	-7.00188800000000	0.00000000000000	0.00000000000000	-19.44324000000000	0.00000000000000	
5.94998400000000	-9.83838700000000	102.32172400000000	-12.42710700000000	0.32342700000000	0.00000000000000	0.12675400000000	-47.74302200000000	746.28808100000003	-57.50747200000000	0.10956600000000	0.00000000000000	-0.08248800000000	0.00000000000000	-7.20616500000000	0.00000000000000	0.00000000000000	-19.31918300000000	0.00000000000000	
5.95164900000000	-9.35765700000000	110.46648100000000	-12.36606400000000	0.32750400000000	0.00000000000000	0.12734700000000	-48.07409500000000	741.93035399999997	-56.96242300000000	0.10918200000000	0.00000000000000	-0.08236100000000	0.00000000000000	-7.33980900000000	0.00000000000000	0.00000000000000	-19.19460500000000	0.00000000000000	
5.95331000000000	-8.72814200000000	118.58622200000001	-12.17680500000000	0.33122000000000	0.00000000000000	0.12789800000000	-48.41342400000000	737.44168700000000	-56.39013200000000	0.10880400000000	0.00000000000000	-0.08222900000000	0.00000000000000	-7.40974500000000	0.00000000000000	0.00000000000000	-19.06950300000000	0.00000000000000	
5.95497800000000	-7.96982800000000	126.71920000000000	-11.87665900000000	0.33461700000000	0.00000000000000	0.12841200000000	-48.76058000000000	732.82118100000002	-55.79065800000000	0.10843300000000	0.00000000000000	-0.08209300000000	0.00000000000000	-7.42416100000000	0.00000000000000	0.00000000000000	-18.94385600000000	0.00000000000000	
